<?xml version="1.0" encoding="utf-8"?>
<!-- Generator: Adobe Illustrator 21.1.0, SVG Export Plug-In . SVG Version: 6.00 Build 0)  -->
<svg version="1.1" id="Capa_1" xmlns="http://www.w3.org/2000/svg" xmlns:xlink="http://www.w3.org/1999/xlink" x="0px" y="0px"
	 viewBox="0 0 512 512" style="enable-background:new 0 0 512 512;" xml:space="preserve">
<path class="st0" d="M501.6,451.4L306.2,256L501.5,60.6c6.7-6.7,10.4-15.6,10.4-25.1c0-9.5-3.7-18.4-10.4-25.1
	c-13.8-13.8-36.4-13.8-50.2,0L256,205.8L60.6,10.5C53.9,3.7,45,0,35.5,0c-9.5,0-18.4,3.7-25.1,10.5C3.7,17.2,0,26.1,0,35.5
	C0,45,3.7,53.9,10.5,60.6L205.8,256L10.5,451.4c-13.8,13.8-13.8,36.4,0,50.2c13.8,13.8,36.4,13.8,50.2,0L256,306.2l195.4,195.4
	c6.9,6.9,16,10.4,25.1,10.4c9.1,0,18.2-3.5,25.1-10.4C515.5,487.8,515.5,465.3,501.6,451.4z"/>
</svg>
