<?xml version="1.0" encoding="utf-8"?>
<svg version="1.1" xmlns="http://www.w3.org/2000/svg" xmlns:xlink="http://www.w3.org/1999/xlink" x="0px" y="0px"
	 viewBox="0 0 512 512" style="enable-background:new 0 0 512 512;" xml:space="preserve">
<path class="st0" d="M479.5,32.5c-43.3-43.3-113.7-43.3-156.9,0L5.9,349.2c-3.7,3.7-5.8,8.8-5.9,14c0,0,0,0.1,0,0.1V492
	c0,11,9,20,20,20h128.7c5.2,0,10.4-2.1,14.1-5.9c10.3-10.3,311.6-311.6,316.7-316.7C522.8,146.1,522.8,75.7,479.5,32.5z M40,472
	v-60.4l60.4,60.4H40z M148.7,463.7L48.3,363.3l249.9-249.9l36,36L199.9,283.8c-7.8,7.8-7.8,20.5,0,28.3c7.8,7.8,20.5,7.8,28.3,0
	l134.3-134.3l36,36L148.7,463.7z M451.3,161.1l-24.4,24.4L326.5,85.1l24.4-24.4c27.7-27.7,72.7-27.7,100.4,0
	C478.9,88.4,478.9,133.4,451.3,161.1z"/>
</svg>
