<?xml version="1.0" encoding="utf-8"?>
<!-- Generator: Adobe Illustrator 21.1.0, SVG Export Plug-In . SVG Version: 6.00 Build 0)  -->
<svg version="1.1" xmlns="http://www.w3.org/2000/svg" xmlns:xlink="http://www.w3.org/1999/xlink" x="0px" y="0px"
	 viewBox="0 0 512 512" style="enable-background:new 0 0 512 512;" xml:space="preserve">
<path class="st0" d="M508.6,243L508.6,243c-25.2-44.4-61.5-81.7-104.9-107.7C359,108.6,308,94.4,256,94.4s-103,14.1-147.6,40.9
	C64.9,161.3,28.7,198.6,3.5,243c-4.6,8-4.6,18,0,25.9c25.2,44.5,61.4,81.7,104.9,107.8c44.6,26.7,95.7,40.9,147.7,40.9
	s103-14.1,147.6-40.9c43.4-26,79.7-63.3,104.9-107.7C513.2,260.9,513.2,251.1,508.6,243z M256,365c-80.4,0-154.5-40.7-198.9-109
	c44.5-68.3,118.5-109,198.9-109s154.5,40.7,198.9,109C410.5,324.3,336.4,365,256,365z"/>
<path class="st0" d="M256,179c-42.5,0-77,34.5-77,77s34.5,77,77,77s77-34.5,77-77S298.5,179,256,179z M256,279
	c-12.7,0-23-10.3-23-23c0-12.7,10.3-23,23-23c12.7,0,23,10.3,23,23C279,268.7,268.7,279,256,279z"/>
</svg>
